<svg width="20" height="22" viewBox="0 0 20 22" fill="none" xmlns="http://www.w3.org/2000/svg" xmlns:xlink="http://www.w3.org/1999/xlink">
<path d="M20,11C20,17.075 15.523,22 10,22C4.477,22 0,17.075 0,11C0,4.925 4.477,0 10,0C15.523,0 20,4.925 20,11Z" fill="#287CB2" stroke="#2385BB" stroke-width="0.5" stroke-miterlimit="3.999327"/>
<path d="M6,5C5.448,5 5,5.448 5,6C5,6.552 5.448,7 6,7L6,5ZM14,6L14.894,6.447C15.049,6.137 15.033,5.769 14.851,5.474C14.668,5.179 14.347,5 14,5L14,6ZM7.106,17.553C6.859,18.047 7.059,18.647 7.553,18.894C8.047,19.141 8.647,18.941 8.894,18.447L7.106,17.553ZM6,7L14,7L14,5L6,5L6,7ZM13.106,5.553L7.106,17.553L8.894,18.447L14.894,6.447L13.106,5.553Z" fill="#FFFFFF"/>
</svg>
