<svg width="50" height="54" viewBox="0 0 50 54" fill="none" xmlns="http://www.w3.org/2000/svg" xmlns:xlink="http://www.w3.org/1999/xlink">
<path d="M24.7,28.756C30.156,28.756 34.58,23.986 34.58,18.101C34.58,12.216 30.156,7.445 24.7,7.445C19.243,7.445 14.82,12.216 14.82,18.101C14.82,23.986 19.243,28.756 24.7,28.756ZM24.7,9.688C29.001,9.688 32.5,13.462 32.5,18.101C32.5,22.739 29.001,26.513 24.7,26.513C20.399,26.513 16.9,22.739 16.9,18.101C16.9,13.462 20.399,9.688 24.7,9.688Z" fill="#FFFFFF"/>
<path d="M24.7,-0.126C11.08,-0.126 0,11.824 0,26.513C0,41.202 11.08,53.152 24.7,53.152C38.32,53.152 49.4,41.202 49.4,26.513C49.4,11.824 38.32,-0.126 24.7,-0.126ZM24.7,2.117C37.173,2.117 47.32,13.061 47.32,26.513C47.32,31.472 45.938,36.088 43.571,39.941C42.967,40.924 41.548,40.615 41.299,39.489L41.299,39.489C40.123,34.16 35.755,30.439 30.676,30.439L18.724,30.439C13.645,30.439 9.277,34.16 8.101,39.489L8.101,39.489C7.852,40.615 6.433,40.924 5.829,39.941C3.462,36.088 2.08,31.472 2.08,26.513C2.08,13.061 12.227,2.117 24.7,2.117ZM12.499,47.041C10.276,45.497 9.541,42.651 10.124,40.008L10.124,40.008C11.076,35.695 14.613,32.682 18.724,32.682L30.676,32.682C34.788,32.682 38.324,35.694 39.276,40.008L39.276,40.008C39.859,42.651 39.125,45.497 36.901,47.041C33.379,49.487 29.192,50.909 24.7,50.909C20.208,50.909 16.021,49.487 12.499,47.041Z" fill="#FFFFFF"/>
</svg>
