<svg width="38" height="22" viewBox="0 0 38 22" fill="none" xmlns="http://www.w3.org/2000/svg" xmlns:xlink="http://www.w3.org/1999/xlink">
<path d="M35.232,0.395L33.027,0.395C31.809,0.395 30.821,1.3 30.821,2.415L30.821,19.92C30.821,21.035 31.809,21.939 33.027,21.939L35.232,21.939C36.45,21.939 37.437,21.035 37.437,19.92L37.437,2.415C37.437,1.3 36.45,0.395 35.232,0.395ZM22.736,5.108L24.941,5.108C26.159,5.108 27.146,6.012 27.146,7.128L27.146,19.92C27.146,21.035 26.159,21.939 24.941,21.939L22.736,21.939C21.518,21.939 20.531,21.035 20.531,19.92L20.531,7.128C20.531,6.012 21.518,5.108 22.736,5.108ZM14.65,9.821L12.444,9.821C11.227,9.821 10.239,10.725 10.239,11.841L10.239,19.92C10.239,21.035 11.227,21.939 12.444,21.939L14.65,21.939C15.867,21.939 16.855,21.035 16.855,19.92L16.855,11.841C16.855,10.725 15.867,9.821 14.65,9.821ZM4.359,13.86L2.154,13.86C0.936,13.86 -0.051,14.765 -0.051,15.88L-0.051,19.92C-0.051,21.035 0.936,21.939 2.154,21.939L4.359,21.939C5.577,21.939 6.564,21.035 6.564,19.92L6.564,15.88C6.564,14.765 5.577,13.86 4.359,13.86Z" clip-rule="evenodd" fill-rule="evenodd" fill="#060505"/>
</svg>
