<svg width="20" height="22" viewBox="0 0 20 22" fill="none" xmlns="http://www.w3.org/2000/svg" xmlns:xlink="http://www.w3.org/1999/xlink">
<path d="M12.222,20.167L12.222,11.917L18.595,4.889C18.69,4.785 18.765,4.661 18.815,4.524C18.866,4.388 18.891,4.242 18.889,4.094L18.889,3.055C18.889,2.893 18.831,2.738 18.726,2.623C18.622,2.509 18.481,2.444 18.334,2.444L1.667,2.444C1.52,2.444 1.378,2.509 1.274,2.623C1.17,2.738 1.111,2.893 1.111,3.055L1.111,4.076C1.112,4.367 1.218,4.647 1.406,4.852L7.778,11.965L7.778,18.199L12.222,20.167Z" fill="#2385BB"/>
<path d="M18.6,2.444L1.378,2.444C1.305,2.451 1.237,2.487 1.188,2.546C1.138,2.605 1.111,2.682 1.111,2.762L1.111,3.813C1.111,3.921 1.129,4.028 1.167,4.127C1.204,4.227 1.259,4.318 1.328,4.394L7.995,11.727L7.995,17.838L12.022,20.044L12.022,11.715L18.689,4.382C18.817,4.23 18.888,4.032 18.889,3.825L18.889,2.762C18.889,2.678 18.859,2.597 18.805,2.537C18.75,2.478 18.677,2.444 18.6,2.444Z" fill="#2385BB"/>
</svg>
