<svg width="80" height="80" viewBox="0 0 80 80" fill="none" xmlns="http://www.w3.org/2000/svg" xmlns:xlink="http://www.w3.org/1999/xlink">
<circle cx="39.68" cy="39.68" r="40" fill="#2596B4"/>
<path d="M57.345,32.665C57.345,36.779 54.211,40.113 50.345,40.113C46.479,40.113 43.345,36.779 43.345,32.665C43.345,28.552 46.479,25.218 50.345,25.218C54.211,25.218 57.345,28.552 57.345,32.665Z" transform="rotate(-209.497 50.345 32.665)" fill="#FF7029" stroke="#FFFFFF" stroke-width="1" stroke-miterlimit="3.999327"/>
<path d="M50.921,51.322L24.591,51.322C23.754,51.322 23.075,52.041 23.075,52.93C23.075,53.817 23.754,54.536 24.591,54.536L52.146,54.536C52.986,54.536 53.664,53.817 53.664,52.93C53.664,52.041 52.986,51.322 52.146,51.322L50.921,51.322ZM39.479,19.842C38.699,19.018 37.477,18.89 36.562,19.538C35.645,20.188 35.289,21.431 35.71,22.509C36.132,23.587 37.213,24.201 38.295,23.973C39.376,23.746 40.156,22.74 40.156,21.574C40.156,20.924 39.912,20.301 39.479,19.842ZM40.578,56.352L36.161,56.352C36.15,56.39 36.139,56.426 36.13,56.466C36.082,56.671 36.056,56.881 36.058,57.091C36.058,58.443 37.093,59.538 38.369,59.538C39.645,59.538 40.679,58.443 40.679,57.091C40.679,56.881 40.656,56.671 40.605,56.466C40.596,56.428 40.586,56.39 40.575,56.352L40.578,56.352ZM34.489,29.377C34.704,29.295 34.941,29.306 35.148,29.412C35.354,29.517 35.511,29.704 35.587,29.933C35.661,30.163 35.645,30.413 35.544,30.629C35.441,30.847 35.26,31.012 35.043,31.086C33.756,31.503 32.662,32.415 31.98,33.642C31.323,34.869 31.052,36.485 31.17,38.486L31.17,38.488C31.198,38.987 30.839,39.415 30.366,39.444C29.895,39.474 29.491,39.094 29.464,38.593C29.326,36.24 29.669,34.292 30.494,32.751C31.379,31.137 32.805,29.933 34.488,29.379L34.489,29.377ZM54.074,28.291C52.256,26.366 49.407,26.07 47.268,27.582C45.131,29.094 44.299,31.996 45.283,34.512C46.266,37.025 48.792,38.455 51.314,37.924C53.836,37.394 55.652,35.051 55.652,32.326C55.654,30.812 55.087,29.362 54.074,28.291ZM51.861,39.658C51.939,41.721 52.15,43.774 52.495,45.805C52.718,47.239 53.13,48.631 53.718,49.944C55.004,50.701 55.643,52.284 55.275,53.792C54.904,55.3 53.619,56.354 52.148,56.354L42.333,56.354C42.375,56.598 42.395,56.845 42.395,57.093C42.371,59.429 40.577,61.31 38.369,61.31C36.163,61.31 34.369,59.429 34.345,57.093C34.345,56.845 34.365,56.598 34.406,56.354L24.592,56.354C23.285,56.356 22.106,55.522 21.606,54.241C21.106,52.962 21.384,51.491 22.312,50.514C22.521,50.29 22.761,50.097 23.021,49.942C23.722,48.346 24.185,46.645 24.397,44.897C24.787,42.047 24.976,39.17 24.967,36.291C24.967,36.266 24.964,36.241 24.964,36.218C24.973,33.32 25.951,30.52 27.726,28.316C29.5,26.11 31.955,24.644 34.656,24.176C33.726,22.901 33.556,21.178 34.215,19.725C34.876,18.275 36.251,17.34 37.773,17.311C39.295,17.282 40.701,18.166 41.409,19.592C42.115,21.018 42.003,22.746 41.117,24.055C43.025,24.208 44.866,24.864 46.475,25.965C48.242,24.785 50.412,24.491 52.405,25.16C54.398,25.829 56.01,27.395 56.813,29.436C57.618,31.48 57.532,33.795 56.577,35.764C55.623,37.733 53.898,39.157 51.861,39.658L51.861,39.658ZM26.675,36.219C26.675,36.25 26.675,36.278 26.671,36.307C26.68,39.276 26.483,42.243 26.082,45.183C25.878,46.656 25.537,48.105 25.064,49.509L51.673,49.509C51.298,48.415 51.011,47.291 50.814,46.146C50.462,44.064 50.243,41.962 50.16,39.847C48.315,39.819 46.554,39.033 45.246,37.653C43.941,36.273 43.192,34.407 43.161,32.453C43.131,30.5 43.819,28.611 45.08,27.185C43.611,26.298 41.95,25.833 40.258,25.837L36.48,25.837C33.882,25.845 31.393,26.942 29.557,28.886C27.72,30.832 26.683,33.468 26.676,36.219L26.675,36.219Z" clip-rule="evenodd" fill-rule="evenodd" fill="#FFFFFF" stroke="#FFFFFF" stroke-width="50" stroke-miterlimit="3.999327"/>
</svg>
