<svg width="100" height="100" viewBox="0 0 100 100" fill="none" xmlns="http://www.w3.org/2000/svg" xmlns:xlink="http://www.w3.org/1999/xlink">
<path d="M100,49.918C100,77.573 77.614,99.991 50,99.991C22.386,99.991 0,77.573 0,49.918C0,22.263 22.386,-0.155 50,-0.155C77.614,-0.155 100,22.263 100,49.918Z" fill="#2596B4"/>
<path d="M62.199,59.656L67.57,65.276C67.82,65.548 67.959,65.911 67.956,66.289C67.953,66.666 67.808,67.027 67.553,67.294C67.298,67.561 66.953,67.712 66.593,67.716C66.232,67.719 65.885,67.574 65.626,67.312L60.255,61.689C56.745,64.837 52.207,66.439 47.593,66.16C42.979,65.881 38.648,63.742 35.508,60.191C32.368,56.64 30.664,51.954 30.753,47.116C30.842,42.278 32.717,37.665 35.985,34.243C39.253,30.822 43.66,28.858 48.281,28.765C52.902,28.672 57.377,30.456 60.769,33.744C64.16,37.031 66.203,41.566 66.47,46.397C66.737,51.227 65.206,55.978 62.199,59.653L62.199,59.656ZM48.625,63.312C52.636,63.312 56.484,61.644 59.32,58.674C62.157,55.704 63.75,51.677 63.75,47.477C63.75,43.277 62.157,39.249 59.32,36.279C56.484,33.309 52.636,31.641 48.625,31.641C44.614,31.641 40.766,33.309 37.93,36.279C35.093,39.249 33.5,43.277 33.5,47.477C33.5,51.677 35.093,55.704 37.93,58.674C40.766,61.644 44.614,63.312 48.625,63.312Z" fill="#FFFFFF"/>
</svg>
