<svg width="36" height="24" viewBox="0 0 36 24" fill="none" xmlns="http://www.w3.org/2000/svg" xmlns:xlink="http://www.w3.org/1999/xlink">
<path d="M17.574,5.009C22.479,5.009 27.198,6.735 30.753,9.828C31.021,10.067 31.449,10.064 31.713,9.821L34.272,7.457C34.405,7.334 34.48,7.168 34.479,6.994C34.478,6.821 34.401,6.655 34.266,6.534C24.934,-1.651 10.212,-1.651 0.88,6.534C0.745,6.655 0.668,6.821 0.667,6.994C0.666,7.168 0.74,7.334 0.873,7.457L3.433,9.821C3.697,10.064 4.125,10.067 4.393,9.828C7.949,6.734 12.667,5.009 17.574,5.009ZM17.574,12.7C20.269,12.699 22.868,13.616 24.866,15.272C25.137,15.507 25.562,15.502 25.826,15.261L28.382,12.897C28.517,12.773 28.591,12.605 28.589,12.43C28.587,12.255 28.509,12.088 28.372,11.967C22.287,6.787 12.865,6.787 6.781,11.967C6.643,12.088 6.565,12.255 6.563,12.43C6.561,12.605 6.636,12.773 6.771,12.897L9.327,15.261C9.59,15.502 10.016,15.507 10.286,15.272C12.283,13.617 14.88,12.701 17.574,12.7ZM22.694,17.874C22.698,18.049 22.622,18.218 22.486,18.341L18.064,22.425C17.934,22.545 17.757,22.613 17.573,22.613C17.388,22.613 17.212,22.545 17.082,22.425L12.659,18.341C12.523,18.218 12.448,18.049 12.452,17.874C12.456,17.698 12.539,17.533 12.681,17.415C15.505,15.229 19.641,15.229 22.465,17.415C22.607,17.533 22.69,17.699 22.694,17.874Z" clip-rule="evenodd" fill-rule="evenodd" fill="#060505"/>
</svg>
